<svg width="140" height="45" viewBox="0 0 140 45" fill="none" xmlns="http://www.w3.org/2000/svg">
<path d="M138.806 0.972656H1.18945V43.8532H138.806V0.972656Z" stroke="white" stroke-linejoin="round"/>
<path d="M35.5462 34.6467H35.4342C34.8267 34.6467 34.3164 34.1484 34.2723 33.5125C34.228 32.8457 34.7151 32.2651 35.3584 32.2213C35.3837 32.2196 35.4101 32.2188 35.4361 32.2188C36.0514 32.2188 36.5668 32.7073 36.6125 33.3323C36.6242 33.5801 36.5838 33.9333 36.3291 34.225L36.3232 34.2318L36.3174 34.2386C36.1212 34.4716 35.8552 34.6121 35.5462 34.6467ZM21.8523 34.6403C21.2035 34.6403 20.6758 34.0989 20.6758 33.4334C20.6758 32.7684 21.2035 32.2273 21.8523 32.2273C22.5011 32.2273 23.0288 32.7684 23.0288 33.4334C23.0288 34.0989 22.5011 34.6403 21.8523 34.6403Z" fill="white"/>
<path d="M35.4691 33.6486C35.514 33.6372 35.5353 33.6163 35.5529 33.5954C35.5606 33.5862 35.5684 33.5771 35.5763 33.5681C35.6127 33.5265 35.616 33.4382 35.6151 33.3935C35.602 33.2877 35.5115 33.2151 35.4344 33.2151C35.4307 33.2151 35.4269 33.2152 35.4245 33.2153C35.3466 33.2207 35.2591 33.3241 35.2656 33.4454C35.2749 33.5619 35.3609 33.6486 35.4325 33.6486H35.4691ZM21.8506 33.6422C21.9495 33.6422 22.0299 33.5481 22.0299 33.4325C22.0299 33.3173 21.9495 33.2236 21.8506 33.2236C21.7518 33.2236 21.6713 33.3173 21.6713 33.4325C21.6713 33.5481 21.7518 33.6422 21.8506 33.6422ZM35.5922 35.643C35.5446 35.643 35.4809 35.643 35.4325 35.643C34.2981 35.643 33.3557 34.7338 33.2758 33.5805C33.1959 32.3788 34.0907 31.3072 35.2889 31.2255C35.3376 31.2222 35.3862 31.2206 35.4344 31.2206C36.57 31.2206 37.5287 32.119 37.6062 33.2718C37.6376 33.8732 37.4617 34.4413 37.0785 34.8801C36.6952 35.3351 36.1675 35.5946 35.5922 35.643ZM21.8506 35.6367C20.6497 35.6367 19.6769 34.6504 19.6769 33.4325C19.6769 32.2154 20.6497 31.2291 21.8506 31.2291C23.0514 31.2291 24.0244 32.2154 24.0244 33.4325C24.0244 34.6504 23.0514 35.6367 21.8506 35.6367ZM34.7934 28.7897H22.7616C22.3299 28.7897 21.9467 28.4971 21.8344 28.0753L17.9195 13.6856H15.1714C14.6445 13.6856 14.2129 13.2477 14.2129 12.711C14.2129 12.1752 14.6445 11.7363 15.1714 11.7363H18.6393C19.0701 11.7363 19.4534 12.0288 19.5655 12.4516L23.4805 26.8404H34.1544L37.7014 18.5581H25.8777C25.35 18.5581 24.9182 18.1193 24.9182 17.5836C24.9182 17.0477 25.35 16.6089 25.8777 16.6089H39.1714C39.491 16.6089 39.7952 16.7713 39.9702 17.0477C40.1461 17.3232 40.1785 17.6643 40.0501 17.973L35.6721 28.2045C35.5123 28.5618 35.1766 28.7897 34.7934 28.7897Z" fill="white"/>
<path d="M35.4691 33.6486C35.514 33.6372 35.5353 33.6163 35.5529 33.5954C35.5606 33.5862 35.5684 33.5771 35.5763 33.5681C35.6127 33.5265 35.616 33.4382 35.6151 33.3935C35.602 33.2877 35.5115 33.2151 35.4344 33.2151C35.4307 33.2151 35.4269 33.2152 35.4245 33.2153C35.3466 33.2207 35.2591 33.3241 35.2656 33.4454C35.2749 33.5619 35.3609 33.6486 35.4325 33.6486H35.4691ZM21.8506 33.6422C21.9495 33.6422 22.0299 33.5481 22.0299 33.4325C22.0299 33.3173 21.9495 33.2236 21.8506 33.2236C21.7518 33.2236 21.6713 33.3173 21.6713 33.4325C21.6713 33.5481 21.7518 33.6422 21.8506 33.6422ZM35.5922 35.643C35.5446 35.643 35.4809 35.643 35.4325 35.643C34.2981 35.643 33.3557 34.7338 33.2758 33.5805C33.1959 32.3788 34.0907 31.3072 35.2889 31.2255C35.3376 31.2222 35.3862 31.2206 35.4344 31.2206C36.57 31.2206 37.5287 32.119 37.6062 33.2718C37.6376 33.8732 37.4617 34.4413 37.0785 34.8801C36.6952 35.3351 36.1675 35.5946 35.5922 35.643ZM21.8506 35.6367C20.6497 35.6367 19.6769 34.6504 19.6769 33.4325C19.6769 32.2154 20.6497 31.2291 21.8506 31.2291C23.0514 31.2291 24.0244 32.2154 24.0244 33.4325C24.0244 34.6504 23.0514 35.6367 21.8506 35.6367ZM34.7934 28.7897H22.7616C22.3299 28.7897 21.9467 28.4971 21.8344 28.0753L17.9195 13.6856H15.1714C14.6445 13.6856 14.2129 13.2477 14.2129 12.711C14.2129 12.1752 14.6445 11.7363 15.1714 11.7363H18.6393C19.0701 11.7363 19.4534 12.0288 19.5655 12.4516L23.4805 26.8404H34.1544L37.7014 18.5581H25.8777C25.35 18.5581 24.9182 18.1193 24.9182 17.5836C24.9182 17.0477 25.35 16.6089 25.8777 16.6089H39.1714C39.491 16.6089 39.7952 16.7713 39.9702 17.0477C40.1461 17.3232 40.1785 17.6643 40.0501 17.973L35.6721 28.2045C35.5123 28.5618 35.1766 28.7897 34.7934 28.7897Z" fill="white"/>
<path d="M57.7525 24.9459L56.1775 20.8649C56.1309 20.7436 56.0819 20.6036 56.0305 20.4449C55.9792 20.2816 55.9302 20.1089 55.8835 19.9269C55.7855 20.3049 55.6852 20.6199 55.5825 20.8719L54.0075 24.9459H57.7525ZM60.5805 28.6699H59.5305C59.4092 28.6699 59.3112 28.6396 59.2365 28.5789C59.1619 28.5183 59.1059 28.4413 59.0685 28.3479L58.1305 25.9259H53.6295L52.6915 28.3479C52.6635 28.4319 52.6099 28.5066 52.5305 28.5719C52.4512 28.6373 52.3532 28.6699 52.2365 28.6699H51.1865L55.1975 18.6389H56.5695L60.5805 28.6699ZM66.0758 23.2659C65.8424 22.9533 65.5904 22.7363 65.3198 22.6149C65.0491 22.4889 64.7458 22.4259 64.4098 22.4259C63.7518 22.4259 63.2454 22.6616 62.8908 23.1329C62.5361 23.6043 62.3588 24.2763 62.3588 25.1489C62.3588 25.6109 62.3984 26.0076 62.4778 26.3389C62.5571 26.6656 62.6738 26.9363 62.8278 27.1509C62.9818 27.3609 63.1708 27.5149 63.3948 27.6129C63.6188 27.7109 63.8731 27.7599 64.1578 27.7599C64.5684 27.7599 64.9254 27.6666 65.2288 27.4799C65.5368 27.2933 65.8191 27.0296 66.0758 26.6889V23.2659ZM67.3218 18.3589V28.6699H66.5798C66.4024 28.6699 66.2904 28.5836 66.2438 28.4109L66.1318 27.5499C65.8284 27.9139 65.4831 28.2079 65.0958 28.4319C64.7084 28.6559 64.2604 28.7679 63.7518 28.7679C63.3458 28.7679 62.9771 28.6909 62.6458 28.5369C62.3144 28.3783 62.0321 28.1473 61.7988 27.8439C61.5654 27.5406 61.3858 27.1626 61.2598 26.7099C61.1338 26.2573 61.0708 25.7369 61.0708 25.1489C61.0708 24.6263 61.1408 24.1409 61.2808 23.6929C61.4208 23.2403 61.6214 22.8483 61.8828 22.5169C62.1441 22.1856 62.4638 21.9266 62.8418 21.7399C63.2244 21.5486 63.6538 21.4529 64.1298 21.4529C64.5638 21.4529 64.9348 21.5276 65.2428 21.6769C65.5554 21.8216 65.8331 22.0246 66.0758 22.2859V18.3589H67.3218ZM73.9097 23.2659C73.6764 22.9533 73.4244 22.7363 73.1537 22.6149C72.8831 22.4889 72.5797 22.4259 72.2437 22.4259C71.5857 22.4259 71.0794 22.6616 70.7247 23.1329C70.3701 23.6043 70.1927 24.2763 70.1927 25.1489C70.1927 25.6109 70.2324 26.0076 70.3117 26.3389C70.3911 26.6656 70.5077 26.9363 70.6617 27.1509C70.8157 27.3609 71.0047 27.5149 71.2287 27.6129C71.4527 27.7109 71.7071 27.7599 71.9917 27.7599C72.4024 27.7599 72.7594 27.6666 73.0627 27.4799C73.3707 27.2933 73.6531 27.0296 73.9097 26.6889V23.2659ZM75.1557 18.3589V28.6699H74.4137C74.2364 28.6699 74.1244 28.5836 74.0777 28.4109L73.9657 27.5499C73.6624 27.9139 73.3171 28.2079 72.9297 28.4319C72.5424 28.6559 72.0944 28.7679 71.5857 28.7679C71.1797 28.7679 70.8111 28.6909 70.4797 28.5369C70.1484 28.3783 69.8661 28.1473 69.6327 27.8439C69.3994 27.5406 69.2197 27.1626 69.0937 26.7099C68.9677 26.2573 68.9047 25.7369 68.9047 25.1489C68.9047 24.6263 68.9747 24.1409 69.1147 23.6929C69.2547 23.2403 69.4554 22.8483 69.7167 22.5169C69.9781 22.1856 70.2977 21.9266 70.6757 21.7399C71.0584 21.5486 71.4877 21.4529 71.9637 21.4529C72.3977 21.4529 72.7687 21.5276 73.0767 21.6769C73.3894 21.8216 73.6671 22.0246 73.9097 22.2859V18.3589H75.1557ZM82.8828 28.7819C82.3228 28.7819 81.8911 28.6256 81.5878 28.3129C81.2891 28.0003 81.1398 27.5499 81.1398 26.9619V22.6219H80.2858C80.2111 22.6219 80.1481 22.6009 80.0968 22.5589C80.0454 22.5123 80.0198 22.4423 80.0198 22.3489V21.8519L81.1818 21.7049L81.4688 19.5139C81.4828 19.4439 81.5131 19.3879 81.5598 19.3459C81.6111 19.2993 81.6764 19.2759 81.7558 19.2759H82.3858V21.7189H84.4368V22.6219H82.3858V26.8779C82.3858 27.1766 82.4581 27.3983 82.6028 27.5429C82.7474 27.6876 82.9341 27.7599 83.1628 27.7599C83.2934 27.7599 83.4054 27.7436 83.4988 27.7109C83.5968 27.6736 83.6808 27.6339 83.7508 27.5919C83.8208 27.5499 83.8791 27.5126 83.9258 27.4799C83.9771 27.4426 84.0214 27.4239 84.0588 27.4239C84.1241 27.4239 84.1824 27.4636 84.2338 27.5429L84.5978 28.1379C84.3831 28.3386 84.1241 28.4973 83.8208 28.6139C83.5174 28.7259 83.2048 28.7819 82.8828 28.7819ZM88.6713 21.4669C89.1893 21.4669 89.656 21.5533 90.0713 21.7259C90.4866 21.8986 90.8413 22.1436 91.1353 22.4609C91.4293 22.7783 91.6533 23.1633 91.8073 23.6159C91.966 24.0639 92.0453 24.5656 92.0453 25.1209C92.0453 25.6809 91.966 26.1849 91.8073 26.6329C91.6533 27.0809 91.4293 27.4636 91.1353 27.7809C90.8413 28.0983 90.4866 28.3433 90.0713 28.5159C89.656 28.6839 89.1893 28.7679 88.6713 28.7679C88.1486 28.7679 87.6773 28.6839 87.2573 28.5159C86.842 28.3433 86.4873 28.0983 86.1933 27.7809C85.8993 27.4636 85.673 27.0809 85.5143 26.6329C85.3603 26.1849 85.2833 25.6809 85.2833 25.1209C85.2833 24.5656 85.3603 24.0639 85.5143 23.6159C85.673 23.1633 85.8993 22.7783 86.1933 22.4609C86.4873 22.1436 86.842 21.8986 87.2573 21.7259C87.6773 21.5533 88.1486 21.4669 88.6713 21.4669ZM88.6713 27.7949C89.3713 27.7949 89.894 27.5616 90.2393 27.0949C90.5846 26.6236 90.7573 25.9679 90.7573 25.1279C90.7573 24.2833 90.5846 23.6253 90.2393 23.1539C89.894 22.6826 89.3713 22.4469 88.6713 22.4469C88.3166 22.4469 88.0063 22.5076 87.7403 22.6289C87.479 22.7503 87.2596 22.9253 87.0823 23.1539C86.9096 23.3826 86.779 23.6649 86.6903 24.0009C86.6063 24.3323 86.5643 24.7079 86.5643 25.1279C86.5643 25.9679 86.737 26.6236 87.0823 27.0949C87.4323 27.5616 87.962 27.7949 88.6713 27.7949ZM104.544 26.5979C104.618 26.5979 104.684 26.6283 104.74 26.6889L105.279 27.2699C104.868 27.7459 104.369 28.1169 103.781 28.3829C103.197 28.6489 102.49 28.7819 101.66 28.7819C100.941 28.7819 100.288 28.6583 99.6997 28.4109C99.1117 28.1589 98.61 27.8089 98.1947 27.3609C97.7794 26.9083 97.4574 26.3669 97.2287 25.7369C97 25.1069 96.8857 24.4139 96.8857 23.6579C96.8857 22.9019 97.0047 22.2089 97.2427 21.5789C97.4807 20.9489 97.8144 20.4076 98.2437 19.9549C98.6777 19.5023 99.1957 19.1523 99.7977 18.9049C100.4 18.6529 101.065 18.5269 101.793 18.5269C102.507 18.5269 103.137 18.6413 103.683 18.8699C104.229 19.0986 104.709 19.4089 105.125 19.8009L104.677 20.4239C104.649 20.4706 104.611 20.5103 104.565 20.5429C104.523 20.5709 104.464 20.5849 104.39 20.5849C104.306 20.5849 104.203 20.5406 104.082 20.4519C103.96 20.3586 103.802 20.2559 103.606 20.1439C103.41 20.0319 103.165 19.9316 102.871 19.8429C102.577 19.7496 102.215 19.7029 101.786 19.7029C101.268 19.7029 100.794 19.7939 100.365 19.9759C99.9354 20.1533 99.5644 20.4123 99.2517 20.7529C98.9437 21.0936 98.7034 21.5089 98.5307 21.9989C98.358 22.4889 98.2717 23.0419 98.2717 23.6579C98.2717 24.2833 98.3604 24.8409 98.5377 25.3309C98.7197 25.8209 98.9647 26.2363 99.2727 26.5769C99.5854 26.9129 99.9517 27.1696 100.372 27.3469C100.796 27.5243 101.254 27.6129 101.744 27.6129C102.042 27.6129 102.311 27.5966 102.549 27.5639C102.791 27.5266 103.013 27.4706 103.214 27.3959C103.419 27.3213 103.608 27.2279 103.781 27.1159C103.958 26.9993 104.133 26.8616 104.306 26.7029C104.385 26.6329 104.464 26.5979 104.544 26.5979ZM110.402 25.4779C109.828 25.4966 109.338 25.5433 108.932 25.6179C108.531 25.6879 108.202 25.7813 107.945 25.8979C107.693 26.0146 107.509 26.1523 107.392 26.3109C107.28 26.4696 107.224 26.6469 107.224 26.8429C107.224 27.0296 107.255 27.1906 107.315 27.3259C107.376 27.4613 107.458 27.5733 107.56 27.6619C107.668 27.7459 107.791 27.8089 107.931 27.8509C108.076 27.8883 108.23 27.9069 108.393 27.9069C108.613 27.9069 108.813 27.8859 108.995 27.8439C109.177 27.7973 109.348 27.7319 109.506 27.6479C109.67 27.5639 109.824 27.4636 109.968 27.3469C110.118 27.2303 110.262 27.0973 110.402 26.9479V25.4779ZM106.377 22.5799C106.769 22.2019 107.192 21.9196 107.644 21.7329C108.097 21.5463 108.599 21.4529 109.149 21.4529C109.546 21.4529 109.898 21.5183 110.206 21.6489C110.514 21.7796 110.773 21.9616 110.983 22.1949C111.193 22.4283 111.352 22.7106 111.459 23.0419C111.567 23.3733 111.62 23.7373 111.62 24.1339V28.6699H111.067C110.946 28.6699 110.853 28.6513 110.787 28.6139C110.722 28.5719 110.671 28.4926 110.633 28.3759L110.493 27.7039C110.307 27.8766 110.125 28.0306 109.947 28.1659C109.77 28.2966 109.583 28.4086 109.387 28.5019C109.191 28.5906 108.981 28.6583 108.757 28.7049C108.538 28.7563 108.293 28.7819 108.022 28.7819C107.747 28.7819 107.488 28.7446 107.245 28.6699C107.003 28.5906 106.79 28.4739 106.608 28.3199C106.431 28.1659 106.289 27.9723 106.181 27.7389C106.079 27.5009 106.027 27.2209 106.027 26.8989C106.027 26.6189 106.104 26.3506 106.258 26.0939C106.412 25.8326 106.662 25.6016 107.007 25.4009C107.353 25.2003 107.803 25.0369 108.358 24.9109C108.914 24.7803 109.595 24.7056 110.402 24.6869V24.1339C110.402 23.5833 110.283 23.1679 110.045 22.8879C109.807 22.6033 109.46 22.4609 109.002 22.4609C108.694 22.4609 108.435 22.5006 108.225 22.5799C108.02 22.6546 107.84 22.7409 107.686 22.8389C107.537 22.9323 107.406 23.0186 107.294 23.0979C107.187 23.1726 107.08 23.2099 106.972 23.2099C106.888 23.2099 106.816 23.1889 106.755 23.1469C106.695 23.1003 106.643 23.0443 106.601 22.9789L106.377 22.5799ZM114.701 22.9999C114.925 22.5146 115.201 22.1366 115.527 21.8659C115.854 21.5906 116.253 21.4529 116.724 21.4529C116.874 21.4529 117.016 21.4693 117.151 21.5019C117.291 21.5346 117.415 21.5859 117.522 21.6559L117.431 22.5869C117.403 22.7036 117.333 22.7619 117.221 22.7619C117.156 22.7619 117.06 22.7479 116.934 22.7199C116.808 22.6919 116.666 22.6779 116.507 22.6779C116.283 22.6779 116.083 22.7106 115.905 22.7759C115.733 22.8413 115.576 22.9393 115.436 23.0699C115.301 23.1959 115.177 23.3546 115.065 23.5459C114.958 23.7326 114.86 23.9473 114.771 24.1899V28.6699H113.518V21.5789H114.232C114.368 21.5789 114.461 21.6046 114.512 21.6559C114.564 21.7073 114.599 21.7959 114.617 21.9219L114.701 22.9999ZM120.795 28.7819C120.235 28.7819 119.803 28.6256 119.5 28.3129C119.201 28.0003 119.052 27.5499 119.052 26.9619V22.6219H118.198C118.123 22.6219 118.06 22.6009 118.009 22.5589C117.958 22.5123 117.932 22.4423 117.932 22.3489V21.8519L119.094 21.7049L119.381 19.5139C119.395 19.4439 119.425 19.3879 119.472 19.3459C119.523 19.2993 119.589 19.2759 119.668 19.2759H120.298V21.7189H122.349V22.6219H120.298V26.8779C120.298 27.1766 120.37 27.3983 120.515 27.5429C120.66 27.6876 120.846 27.7599 121.075 27.7599C121.206 27.7599 121.318 27.7436 121.411 27.7109C121.509 27.6736 121.593 27.6339 121.663 27.5919C121.733 27.5499 121.791 27.5126 121.838 27.4799C121.889 27.4426 121.934 27.4239 121.971 27.4239C122.036 27.4239 122.095 27.4636 122.146 27.5429L122.51 28.1379C122.295 28.3386 122.036 28.4973 121.733 28.6139C121.43 28.7259 121.117 28.7819 120.795 28.7819Z" fill="white"/>
</svg>
